<?xml version="1.0" standalone="no"?>
<!DOCTYPE svg PUBLIC "-//W3C//DTD SVG 20010904//EN"
 "http://www.w3.org/TR/2001/REC-SVG-20010904/DTD/svg10.dtd">
<svg version="1.0" xmlns="http://www.w3.org/2000/svg"
 width="1080.000000pt" height="1080.000000pt" viewBox="0 0 1080.000000 1080.000000"
 preserveAspectRatio="xMidYMid meet">

<g transform="translate(0.000000,1080.000000) scale(0.100000,-0.100000)"
fill="#000000" stroke="none">
<path d="M5115 7610 c-179 -19 -241 -56 -319 -187 -220 -370 -692 -1663 -776
-2124 -10 -59 -42 -194 -69 -300 -98 -381 -153 -696 -155 -899 -1 -141 9 -172
86 -259 67 -77 290 -269 343 -296 63 -31 132 -33 191 -4 50 24 183 160 238
243 50 76 93 197 117 331 42 232 121 521 170 617 55 108 151 224 367 441 392
395 557 519 1032 774 113 61 246 134 295 163 199 115 372 179 575 210 154 24
223 57 336 163 142 132 174 226 90 261 -60 25 -103 73 -130 145 -31 79 -69
120 -146 155 -96 44 -195 59 -354 53 -156 -5 -260 -27 -375 -79 -36 -17 -112
-48 -169 -69 -204 -78 -350 -164 -627 -372 -404 -305 -640 -515 -738 -659 -33
-49 -67 -63 -67 -28 0 34 45 137 195 450 325 676 399 898 354 1076 -15 57 -83
134 -144 163 -38 18 -199 44 -240 39 -5 0 -41 -4 -80 -8z"/>
</g>
</svg>
