<svg version="1.0" xmlns="http://www.w3.org/2000/svg"
 width="500.000000pt" height="498.000000pt" viewBox="0 0 500.000000 498.000000"
 preserveAspectRatio="xMidYMid meet">

<g transform="translate(0.000000,498.000000) scale(0.100000,-0.100000)"
fill="#000000" stroke="none">
<path d="M1135 4371 c-85 -30 -132 -59 -184 -111 -66 -66 -95 -141 -87 -225
27 -253 17 -343 -57 -510 -56 -130 -117 -279 -117 -288 0 -5 -6 -23 -14 -40
-75 -170 -188 -533 -221 -712 -8 -44 -22 -111 -30 -150 -28 -130 -57 -280 -70
-355 -7 -41 -23 -124 -36 -185 -12 -60 -24 -151 -26 -201 -4 -86 -2 -96 32
-185 32 -80 99 -185 126 -197 4 -2 18 -13 31 -25 13 -12 41 -31 61 -42 20 -11
37 -23 37 -27 0 -5 6 -8 14 -8 7 0 42 -9 76 -20 34 -11 77 -20 95 -20 34 0 56
21 172 165 54 67 56 70 146 177 36 42 69 82 76 90 6 7 32 37 58 67 27 30 56
63 66 75 10 11 67 71 125 131 152 157 251 263 296 315 72 83 361 394 399 430
22 19 76 69 120 110 100 92 151 131 199 153 67 31 108 18 108 -35 0 -31 -45
-167 -60 -182 -6 -6 -10 -16 -10 -24 0 -8 -6 -28 -14 -45 -8 -18 -35 -79 -61
-137 -26 -58 -69 -167 -96 -243 -26 -75 -51 -141 -54 -146 -3 -5 -25 -65 -49
-133 -24 -67 -56 -154 -70 -193 -30 -83 -33 -157 -8 -212 60 -135 239 -293
330 -293 35 0 150 58 215 109 137 106 288 251 661 630 172 174 298 293 395
371 24 19 62 51 85 71 45 39 122 90 207 138 62 34 128 42 149 16 15 -18 9
-113 -14 -235 -11 -61 -16 -144 -16 -296 0 -222 8 -277 62 -426 40 -111 145
-256 254 -348 49 -42 192 -130 211 -130 17 0 18 44 15 1062 -2 729 -6 1072
-13 1090 -13 33 -95 89 -163 111 -84 29 -145 21 -302 -37 -35 -13 -106 -50
-164 -86 -8 -5 -37 -21 -63 -35 -150 -81 -544 -378 -715 -538 -45 -43 -88 -76
-95 -74 -19 7 -11 63 23 167 17 52 56 192 86 310 59 230 61 253 27 355 -8 28
-31 73 -49 100 -60 91 -190 214 -241 229 -13 4 -23 11 -23 15 0 5 -29 16 -64
25 -64 18 -66 18 -123 -4 -58 -21 -205 -97 -253 -130 -14 -10 -72 -48 -130
-86 -58 -38 -109 -72 -115 -76 -5 -5 -64 -49 -130 -98 -66 -50 -133 -100 -149
-113 -72 -54 -365 -304 -480 -408 -64 -58 -126 -99 -148 -99 -26 0 -40 35 -32
78 6 33 48 146 90 242 8 19 19 44 24 55 5 11 24 55 44 98 20 43 36 80 36 83 0
3 6 20 14 37 8 18 26 61 41 97 14 36 30 74 35 85 5 11 12 31 16 45 4 14 9 27
13 30 8 6 38 90 58 160 19 65 29 216 15 233 -5 7 -13 33 -16 60 -6 41 -61 165
-91 206 -55 75 -138 120 -265 146 -96 19 -162 18 -225 -4z"/>
</g>
</svg>
