<?xml version="1.0" standalone="no"?>
<!DOCTYPE svg PUBLIC "-//W3C//DTD SVG 20010904//EN"
 "http://www.w3.org/TR/2001/REC-SVG-20010904/DTD/svg10.dtd">
<svg version="1.0" xmlns="http://www.w3.org/2000/svg"
 width="496.000000pt" height="500.000000pt" viewBox="0 0 496.000000 500.000000"
 preserveAspectRatio="xMidYMid meet">

<g transform="translate(0.000000,500.000000) scale(0.100000,-0.100000)"
fill="#000000" stroke="none">
<path d="M3705 3964 c-22 -2 -56 -8 -75 -13 -124 -33 -167 -46 -185 -58 -11
-7 -27 -13 -37 -13 -10 0 -18 -3 -18 -8 0 -9 -90 -42 -114 -42 -9 0 -16 -4
-16 -10 0 -5 -8 -10 -17 -10 -10 -1 -36 -9 -58 -20 -22 -11 -46 -19 -53 -20
-7 0 -11 -4 -8 -9 4 -5 -6 -14 -21 -19 -19 -7 -22 -11 -10 -11 16 -1 17 -3 3
-16 -8 -8 -24 -15 -34 -15 -47 0 -73 -33 -34 -43 14 -4 15 -5 1 -6 -9 0 -19
-10 -22 -21 -3 -12 -14 -20 -26 -20 -17 0 -21 -7 -22 -32 -1 -33 -1 -88 0
-120 1 -9 11 -19 24 -21 21 -4 21 -4 -3 -6 -25 -1 -25 -1 -25 -106 0 -87 3
-105 15 -105 13 0 13 -2 1 -9 -20 -13 -20 -199 0 -212 12 -7 12 -9 -1 -9 -15
0 -17 -25 -11 -107 1 -18 16 -16 35 3 15 14 16 14 16 0 0 -17 19 -20 70 -10
22 5 28 9 18 15 -10 7 -10 9 3 9 15 0 137 58 149 70 3 3 16 11 30 17 14 7 50
27 80 44 105 61 155 86 183 93 15 3 52 18 82 31 29 14 60 25 67 25 7 0 22 7
32 15 11 8 32 15 47 15 15 0 29 4 31 10 3 9 81 26 183 39 130 16 206 56 314
163 101 101 126 178 67 207 -41 19 -126 106 -126 128 0 9 -14 40 -31 69 -26
42 -43 57 -93 82 -34 16 -77 34 -96 40 -38 11 -250 22 -315 16z m-668 -530
c-3 -3 -12 -4 -19 -1 -8 3 -5 6 6 6 11 1 17 -2 13 -5z m0 -220 c-3 -3 -12 -4
-19 -1 -8 3 -5 6 6 6 11 1 17 -2 13 -5z m0 -220 c-3 -3 -12 -4 -19 -1 -8 3 -5
6 6 6 11 1 17 -2 13 -5z"/>
</g>
</svg>
